<?xml version="1.0" standalone="no"?>
<!DOCTYPE svg PUBLIC "-//W3C//DTD SVG 20010904//EN"
 "http://www.w3.org/TR/2001/REC-SVG-20010904/DTD/svg10.dtd">
<svg version="1.0" xmlns="http://www.w3.org/2000/svg"
 width="475.000000pt" height="475.000000pt" viewBox="0 0 475.000000 475.000000"
 preserveAspectRatio="xMidYMid meet">
<metadata>
Created by potrace 1.14, written by Peter Selinger 2001-2017
</metadata>
<g transform="translate(0.000000,475.000000) scale(0.100000,-0.100000)"
fill="#000000" stroke="none">
<path d="M0 2375 l0 -2375 2375 0 2375 0 0 2375 0 2375 -2375 0 -2375 0 0
-2375z m4485 2124 c-4 -12 -34 -80 -67 -153 -117 -255 -407 -882 -453 -981
-26 -55 -65 -138 -87 -184 l-39 -85 -479 479 c-264 264 -480 483 -480 487 0 5
6 8 13 8 11 0 1470 415 1547 440 43 14 52 12 45 -11z m-895 -1457 l155 -152
-165 -165 -166 -166 -559 555 -559 554 -659 -664 c-363 -365 -669 -676 -680
-690 l-20 -26 587 -587 586 -586 0 -335 1 -335 -928 923 -927 923 1020 1020
1019 1019 570 -568 c313 -312 640 -636 725 -720z m-1165 -462 c-179 -179 -325
-328 -325 -333 0 -4 493 -8 1095 -9 l1095 -3 -992 -992 -993 -993 3 333 3 333
424 424 c234 234 425 428 425 433 0 4 -316 7 -702 7 l-702 -1 -197 197 -197
197 531 528 532 528 163 -162 162 -162 -325 -325z"/>
</g>
</svg>
